# xmcd CD database file
#
# Track frame offsets:
#	150
#	14475
#	35182
#	42730
#	52285
#	65802
#	79430
#	89557
#	101317
#	115587
#	127890
#	135540
#
# Disc length: 1971 seconds
#
# Revision: 2
# Processed by: cddbd v1.5.2PL0 Copyright (c) Steve Scherf et al.
# Submitted via: CDex 1.51
#
DISCID=b107b10c
DTITLE=Various Artist - Big Band Christmas Swing
DYEAR=2003
DGENRE=Christmas
TTITLE0=Louis Prima and His New Orleans Gang - What Will Santa Claus Say?
TTITLE1=Big Bad Voodoo Daddy - Christmas Time In Tinseltown
TTITLE2=The Dukes Of Dixieland - Frosty The Snowman
TTITLE3=June Christy - The Merriest
TTITLE4=Duke Ellington and His Orchestra - Jingle Bells
TTITLE5=Benny Goodman and His Orchestra - Winter Weather
TTITLE6=Les Brown and His Band Of Renown - We Wish You The Merriest
TTITLE7=Squirrel Nut Zippers - Hot Christmas
TTITLE8=Freddy Martin and His Orchestra - Sleigh Ride
TTITLE9=Larry Clinton and His Orchestra - Parade Of The Wooden Soliders
TTITLE10=Jack Jones - Mistletoe And Holly
TTITLE11=Lester Lanin and His Orchestra - Dance Of The Sugar-Plum Fairies
EXTD=YEAR: 2003
EXTT0=
EXTT1=
EXTT2=
EXTT3=
EXTT4=
EXTT5=
EXTT6=
EXTT7=
EXTT8=
EXTT9=
EXTT10=
EXTT11=
PLAYORDER=
